<?xml version="1.0" encoding="UTF-8"?>
<svg id="Layer_1" data-name="Layer 1" xmlns="http://www.w3.org/2000/svg" viewBox="0 0 354.26 139.57">
  <defs>
    <style>
      .cls-1 {
        fill: #013d5b;
      }

      .cls-2 {
        fill: #00a0dd;
      }
    </style>
  </defs>
  <path class="cls-1" d="M24.61,71.34h2.8v-28.23c0-2.07-1.68-3.75-3.75-3.75h-2.8v28.23c0,2.07,1.68,3.75,3.75,3.75"/>
  <path class="cls-1" d="M75.51,60.84l-20.75-20.59c-.44-.44-.89-.77-1.31-.96-.45-.21-.91-.31-1.39-.31-1.02,0-1.85.36-2.45,1.08-.59.68-.88,1.6-.88,2.73v28.56h6.3v-21.72l20.66,20.8c.88.87,1.84,1.31,2.87,1.31.96,0,1.76-.35,2.37-1.05.59-.67.88-1.6.88-2.76v-28.82h-6.29v21.74Z"/>
  <path class="cls-1" d="M100.99,45.91h11.7v25.43h6.55v-25.43h11.7v-2.8c0-2.07-1.68-3.75-3.75-3.75h-22.45c-2.07,0-3.75,1.68-3.75,3.75v2.8Z"/>
  <path class="cls-1" d="M207.91,40.48c-1.89.75-3.55,1.81-4.94,3.18-1.4,1.37-2.5,3.04-3.28,4.97-.77,1.92-1.16,4.08-1.16,6.41s.39,4.46,1.16,6.44c.78,1.99,1.87,3.73,3.26,5.18,1.39,1.44,3.05,2.6,4.93,3.43,1.89.84,3.97,1.26,6.19,1.26h15.44c2.07,0,3.75-1.68,3.75-3.75v-15.35h-20.5v5.7h13.91v6.85h-12.6c-1.3,0-2.51-.24-3.6-.72-1.09-.47-2.05-1.13-2.84-1.96-.79-.83-1.42-1.84-1.87-3.01-.45-1.17-.68-2.46-.68-3.82s.23-2.68.68-3.81c.45-1.13,1.07-2.12,1.87-2.94.79-.82,1.74-1.46,2.84-1.93,1.09-.46,2.3-.7,3.61-.7h19.19v-2.8c0-2.07-1.68-3.75-3.75-3.75h-15.44c-2.21,0-4.29.38-6.17,1.12"/>
  <path class="cls-1" d="M331.71,61.59c1.74-.82,3.13-2.04,4.16-3.64,1.17-1.83,1.77-4.11,1.77-6.78,0-1.78-.27-3.42-.8-4.86-.53-1.45-1.32-2.71-2.34-3.75-1.02-1.03-2.27-1.84-3.72-2.39-1.44-.54-3.1-.82-4.91-.82h-18.96c-2.07,0-3.75,1.68-3.75,3.75v24.48c0,2.07,1.68,3.75,3.75,3.75h2.76v-25.43h16.2c1.7,0,3.03.44,3.95,1.3.91.86,1.37,2.22,1.37,4.05s-.45,3.25-1.33,4.2c-.87.93-2.21,1.41-3.98,1.41h-10.97v5.91h9.4l7.8,8.56h9.29l-9.66-9.75Z"/>
  <polygon class="cls-2" points="23.97 92.55 20.86 92.55 20.86 90.29 29.92 90.29 29.92 92.55 26.83 92.55 26.83 100.39 23.97 100.39 23.97 92.55"/>
  <polygon class="cls-2" points="57.28 98.19 57.28 100.4 49.17 100.4 49.17 90.29 57.09 90.29 57.09 92.49 52 92.49 52 94.2 56.49 94.2 56.49 96.34 52 96.34 52 98.19 57.28 98.19"/>
  <path class="cls-2" d="M76.52,95.34c0-3.08,2.35-5.26,5.56-5.26,1.87,0,3.36.68,4.35,1.91l-1.82,1.65c-.64-.77-1.42-1.18-2.39-1.18-1.66,0-2.81,1.16-2.81,2.89s1.15,2.89,2.81,2.89c.97,0,1.75-.42,2.39-1.18l1.82,1.65c-.98,1.23-2.48,1.91-4.35,1.91-3.21,0-5.56-2.18-5.56-5.26"/>
  <polygon class="cls-2" points="115.48 90.29 115.48 100.4 112.62 100.4 112.62 96.45 108.72 96.45 108.72 100.4 105.86 100.4 105.86 90.29 108.72 90.29 108.72 94.08 112.62 94.08 112.62 90.29 115.48 90.29"/>
  <polygon class="cls-2" points="145.29 90.29 145.29 100.4 142.94 100.4 138.48 95.01 138.48 100.4 135.68 100.4 135.68 90.29 138.03 90.29 142.49 95.67 142.49 90.29 145.29 90.29"/>
  <path class="cls-2" d="M164.97,95.34c0-3.03,2.38-5.26,5.62-5.26s5.62,2.23,5.62,5.26-2.38,5.26-5.62,5.26-5.62-2.22-5.62-5.26M173.31,95.34c0-1.74-1.2-2.89-2.73-2.89s-2.73,1.14-2.73,2.89,1.2,2.89,2.73,2.89,2.73-1.14,2.73-2.89"/>
  <polygon class="cls-2" points="195.88 90.29 198.74 90.29 198.74 98.13 203.56 98.13 203.56 100.4 195.88 100.4 195.88 90.29"/>
  <path class="cls-2" d="M222.18,95.34c0-3.03,2.38-5.26,5.62-5.26s5.62,2.23,5.62,5.26-2.38,5.26-5.62,5.26-5.62-2.22-5.62-5.26M230.53,95.34c0-1.74-1.2-2.89-2.73-2.89s-2.73,1.14-2.73,2.89,1.2,2.89,2.73,2.89,2.73-1.14,2.73-2.89"/>
  <path class="cls-2" d="M259.86,95.13h2.53v4.18c-1.17.84-2.77,1.29-4.24,1.29-3.22,0-5.58-2.18-5.58-5.26s2.35-5.26,5.63-5.26c1.89,0,3.42.65,4.42,1.85l-1.82,1.65c-.7-.76-1.49-1.12-2.45-1.12-1.73,0-2.89,1.14-2.89,2.89s1.16,2.89,2.86,2.89c.54,0,1.04-.1,1.55-.33v-2.77Z"/>
  <rect class="cls-2" x="282.38" y="90.29" width="2.86" height="10.11"/>
  <polygon class="cls-2" points="313.58 98.19 313.58 100.4 305.47 100.4 305.47 90.29 313.4 90.29 313.4 92.49 308.3 92.49 308.3 94.2 312.79 94.2 312.79 96.34 308.3 96.34 308.3 98.19 313.58 98.19"/>
  <path class="cls-2" d="M332.64,99.49l.94-2.11c.89.59,2.16.99,3.33.99s1.65-.33,1.65-.82c0-1.6-5.75-.43-5.75-4.18,0-1.81,1.47-3.28,4.48-3.28,1.31,0,2.67.31,3.67.88l-.88,2.12c-.96-.52-1.92-.78-2.8-.78-1.2,0-1.63.4-1.63.91,0,1.55,5.73.39,5.73,4.11,0,1.76-1.47,3.27-4.48,3.27-1.66,0-3.31-.45-4.26-1.12"/>
  <path class="cls-1" d="M260.53,64.79v-6.85h21.03v-5.7h-21.03v-6.34h22.17v-2.8c0-2.07-1.68-3.75-3.75-3.75h-24.93v31.99h24.97c2.07,0,3.75-1.68,3.75-3.75v-2.8h-22.21Z"/>
  <path class="cls-1" d="M156.8,57.95h21.03v-5.7h-21.03v-6.34h22.17v-2.8c0-2.07-1.68-3.75-3.75-3.75h-24.93v31.99h24.97c2.07,0,3.75-1.68,3.75-3.75v-2.8h-22.21v-6.85Z"/>
</svg>